<svg data-logo="logo" xmlns="http://www.w3.org/2000/svg" viewBox="0 0 230 42">
  <style>
		path {
			fill: #394149;
		}

		@media (prefers-color-scheme: dark) {
			path {
				fill: #979797;
			}
		}
	</style>
  <g id="logogram" transform="translate(0, 1) rotate(0)"><path d="M40 13.4683C40.0001 10.7823 39.1891 8.1589 37.673 5.9417C36.1569 3.72451 34.0065 2.01688 31.5035 1.04252C29.0005 0.0681476 26.2615 -0.127534 23.6455 0.48109C21.0293 1.08971 18.658 2.47428 16.8421 4.45341H0V40H35.5601V23.3873C36.9557 22.139 38.0726 20.6104 38.8377 18.9012C39.6027 17.192 39.9988 15.3409 40 13.4683ZM33.1579 13.4683C33.1606 14.7553 32.7814 16.0143 32.0683 17.0858C31.3551 18.1572 30.3402 18.9931 29.1518 19.4874C27.9634 19.9819 26.6552 20.1127 25.3924 19.8631C24.1298 19.6137 22.9695 18.9953 22.0584 18.0861C21.1474 17.1769 20.5266 16.0179 20.2745 14.7557C20.0224 13.4936 20.1505 12.185 20.6424 10.9957C21.1343 9.80626 21.968 8.78957 23.0379 8.07423C24.108 7.35888 25.3661 6.97705 26.6532 6.97703C28.376 6.97703 30.0285 7.6605 31.2479 8.87745C32.4675 10.0944 33.1544 11.7455 33.1579 13.4683ZM28.7179 33.1579H6.84211V11.2955H13.5088C13.38 12.0128 13.3123 12.7397 13.3063 13.4683C13.31 17.007 14.7173 20.3997 17.2196 22.902C19.7217 25.4042 23.1144 26.8116 26.6532 26.8151C27.3451 26.8115 28.0355 26.7528 28.7179 26.6397V33.1579Z" fill="#394149"/></g>
  <g id="logotype" transform="translate(46, 2)"><path fill="currentColor" d="M16.82 31.38L16.82 31.38Q13.90 31.38 11.78 30.18Q9.66 28.98 8.52 26.78Q7.38 24.57 7.38 21.55L7.38 21.55Q7.38 18.59 8.51 16.37Q9.64 14.15 11.71 12.90Q13.78 11.65 16.56 11.65L16.56 11.65Q18.44 11.65 20.06 12.25Q21.69 12.85 22.92 14.06Q24.15 15.26 24.84 17.07Q25.53 18.88 25.53 21.34L25.53 21.34L25.53 22.78L9.49 22.78L9.49 19.57L23.02 19.57L20.63 20.42Q20.63 18.93 20.18 17.83Q19.72 16.73 18.83 16.12Q17.93 15.52 16.60 15.52L16.60 15.52Q15.28 15.52 14.35 16.13Q13.42 16.75 12.94 17.80Q12.46 18.85 12.46 20.20L12.46 20.20L12.46 22.47Q12.46 24.13 13.02 25.26Q13.57 26.39 14.57 26.95Q15.57 27.51 16.90 27.51L16.90 27.51Q17.81 27.51 18.54 27.26Q19.28 27.00 19.80 26.50Q20.32 25.99 20.59 25.26L20.59 25.26L25.24 26.13Q24.78 27.70 23.64 28.89Q22.49 30.08 20.77 30.73Q19.06 31.38 16.82 31.38ZM31.89 31L26.76 31L26.76 11.89L31.72 11.89L31.72 15.23L31.92 15.23Q32.45 13.45 33.69 12.54Q34.93 11.64 36.54 11.64L36.54 11.64Q36.93 11.64 37.38 11.68Q37.84 11.72 38.20 11.81L38.20 11.81L38.20 16.39Q37.85 16.27 37.20 16.20Q36.55 16.13 35.97 16.13L35.97 16.13Q34.81 16.13 33.87 16.64Q32.93 17.14 32.41 18.04Q31.89 18.93 31.89 20.13L31.89 20.13L31.89 31ZM43.87 38.14L38.74 38.14L38.74 11.89L43.78 11.89L43.78 15.11L44.02 15.11Q44.38 14.35 45.04 13.55Q45.70 12.75 46.77 12.20Q47.85 11.65 49.47 11.65L49.47 11.65Q51.59 11.65 53.35 12.75Q55.11 13.84 56.16 16.03Q57.21 18.22 57.21 21.48L57.21 21.48Q57.21 24.66 56.19 26.86Q55.16 29.05 53.40 30.19Q51.64 31.32 49.44 31.32L49.44 31.32Q47.88 31.32 46.81 30.79Q45.73 30.27 45.05 29.49Q44.38 28.71 44.02 27.94L44.02 27.94L43.87 27.94L43.87 38.14ZM47.87 27.21L47.87 27.21Q49.20 27.21 50.11 26.47Q51.03 25.74 51.50 24.44Q51.97 23.14 51.97 21.46L51.97 21.46Q51.97 19.79 51.50 18.51Q51.03 17.23 50.12 16.49Q49.22 15.76 47.87 15.76L47.87 15.76Q46.55 15.76 45.63 16.47Q44.70 17.17 44.23 18.45Q43.75 19.72 43.75 21.46L43.75 21.46Q43.75 23.19 44.23 24.48Q44.72 25.77 45.64 26.49Q46.57 27.21 47.87 27.21ZM58.73 18.49L70.32 18.49L70.32 22.57L58.73 22.57L58.73 18.49ZM80.21 31.38L80.21 31.38Q77.91 31.38 76.13 30.72Q74.35 30.06 73.22 28.80Q72.10 27.55 71.77 25.77L71.77 25.77L76.54 24.95Q76.91 26.28 77.85 26.95Q78.79 27.62 80.37 27.62L80.37 27.62Q81.82 27.62 82.67 27.06Q83.53 26.51 83.53 25.65L83.53 25.65Q83.53 24.90 82.92 24.42Q82.32 23.94 81.07 23.69L81.07 23.69L77.77 23.00Q75.00 22.44 73.63 21.08Q72.27 19.72 72.27 17.58L72.27 17.58Q72.27 15.74 73.27 14.41Q74.28 13.09 76.08 12.37Q77.87 11.65 80.30 11.65L80.30 11.65Q82.55 11.65 84.21 12.28Q85.87 12.90 86.90 14.05Q87.92 15.19 88.26 16.75L88.26 16.75L83.72 17.55Q83.43 16.58 82.60 15.95Q81.77 15.33 80.37 15.33L80.37 15.33Q79.10 15.33 78.25 15.86Q77.39 16.39 77.39 17.26L77.39 17.26Q77.39 17.99 77.95 18.49Q78.50 18.99 79.85 19.26L79.85 19.26L83.29 19.94Q86.06 20.51 87.41 21.78Q88.76 23.05 88.76 25.10L88.76 25.10Q88.76 26.98 87.66 28.39Q86.57 29.80 84.65 30.59Q82.73 31.38 80.21 31.38ZM89.82 37.77L89.82 37.77L90.99 33.91L91.63 34.06Q92.65 34.33 93.46 34.21Q94.26 34.09 94.75 33.56Q95.23 33.03 95.34 32.08L95.34 32.08L95.47 31.05L88.29 11.89L93.75 11.89L96.96 21.81Q97.54 23.69 97.91 25.57Q98.27 27.45 98.75 29.50L98.75 29.50L97.56 29.50Q98.02 27.45 98.48 25.56Q98.94 23.67 99.56 21.81L99.56 21.81L102.91 11.89L108.29 11.89L100.17 33.26Q99.59 34.79 98.69 35.92Q97.78 37.05 96.43 37.67Q95.08 38.28 93.17 38.28L93.17 38.28Q92.14 38.28 91.25 38.14Q90.36 37.99 89.82 37.77ZM116.34 31.38L116.34 31.38Q114.03 31.38 112.25 30.72Q110.47 30.06 109.35 28.80Q108.22 27.55 107.89 25.77L107.89 25.77L112.66 24.95Q113.04 26.28 113.98 26.95Q114.92 27.62 116.49 27.62L116.49 27.62Q117.94 27.62 118.80 27.06Q119.65 26.51 119.65 25.65L119.65 25.65Q119.65 24.90 119.05 24.42Q118.44 23.94 117.19 23.69L117.19 23.69L113.89 23.00Q111.12 22.44 109.76 21.08Q108.39 19.72 108.39 17.58L108.39 17.58Q108.39 15.74 109.40 14.41Q110.41 13.09 112.20 12.37Q114.00 11.65 116.42 11.65L116.42 11.65Q118.68 11.65 120.34 12.28Q121.99 12.90 123.02 14.05Q124.04 15.19 124.39 16.75L124.39 16.75L119.84 17.55Q119.55 16.58 118.72 15.95Q117.89 15.33 116.49 15.33L116.49 15.33Q115.23 15.33 114.37 15.86Q113.52 16.39 113.52 17.26L113.52 17.26Q113.52 17.99 114.07 18.49Q114.63 18.99 115.98 19.26L115.98 19.26L119.41 19.94Q122.18 20.51 123.53 21.78Q124.88 23.05 124.88 25.10L124.88 25.10Q124.88 26.98 123.79 28.39Q122.69 29.80 120.77 30.59Q118.85 31.38 116.34 31.38ZM124.23 11.89L135.56 11.89L135.56 15.81L124.23 15.81L124.23 11.89ZM126.86 25.86L126.86 7.35L131.99 7.35L131.99 25.41Q131.99 26.32 132.39 26.75Q132.79 27.19 133.73 27.19L133.73 27.19Q134.02 27.19 134.55 27.11Q135.08 27.04 135.36 26.97L135.36 26.97L136.09 30.81Q135.24 31.07 134.39 31.17Q133.54 31.27 132.78 31.27L132.78 31.27Q129.90 31.27 128.38 29.87Q126.86 28.47 126.86 25.86L126.86 25.86ZM145.25 31.38L145.25 31.38Q142.33 31.38 140.21 30.18Q138.09 28.98 136.95 26.78Q135.82 24.57 135.82 21.55L135.82 21.55Q135.82 18.59 136.94 16.37Q138.07 14.15 140.14 12.90Q142.21 11.65 144.99 11.65L144.99 11.65Q146.87 11.65 148.50 12.25Q150.12 12.85 151.35 14.06Q152.58 15.26 153.27 17.07Q153.96 18.88 153.96 21.34L153.96 21.34L153.96 22.78L137.92 22.78L137.92 19.57L151.45 19.57L149.06 20.42Q149.06 18.93 148.61 17.83Q148.15 16.73 147.26 16.12Q146.36 15.52 145.03 15.52L145.03 15.52Q143.71 15.52 142.78 16.13Q141.85 16.75 141.37 17.80Q140.89 18.85 140.89 20.20L140.89 20.20L140.89 22.47Q140.89 24.13 141.45 25.26Q142.00 26.39 143.00 26.95Q144.00 27.51 145.33 27.51L145.33 27.51Q146.24 27.51 146.97 27.26Q147.71 27.00 148.23 26.50Q148.75 25.99 149.03 25.26L149.03 25.26L153.67 26.13Q153.21 27.70 152.07 28.89Q150.92 30.08 149.21 30.73Q147.49 31.38 145.25 31.38ZM160.32 31L155.19 31L155.19 11.89L159.94 11.89L160.20 16.64L159.82 16.64Q160.27 14.88 161.13 13.77Q161.99 12.66 163.16 12.13Q164.32 11.60 165.60 11.60L165.60 11.60Q167.67 11.60 168.93 12.91Q170.20 14.22 170.80 16.95L170.80 16.95L170.20 16.95Q170.63 15.12 171.59 13.94Q172.56 12.75 173.88 12.18Q175.21 11.60 176.66 11.60L176.66 11.60Q178.42 11.60 179.79 12.37Q181.17 13.14 181.96 14.59Q182.76 16.03 182.76 18.11L182.76 18.11L182.76 31L177.63 31L177.63 19.09Q177.63 17.46 176.75 16.68Q175.87 15.89 174.59 15.89L174.59 15.89Q173.63 15.89 172.92 16.31Q172.21 16.73 171.83 17.48Q171.45 18.23 171.45 19.24L171.45 19.24L171.45 31L166.49 31L166.49 18.95Q166.49 17.55 165.66 16.72Q164.83 15.89 163.52 15.89L163.52 15.89Q162.61 15.89 161.88 16.30Q161.16 16.71 160.74 17.51Q160.32 18.30 160.32 19.45L160.32 19.45L160.32 31Z"/></g>
</svg>
